HIERARCHY
ROOT hip
{
	OFFSET 0.000000 0.000000 0.000000 
	CHANNELS 6 Xposition Yposition Zposition Xrotation Zrotation Yrotation
	JOINT abdomen
	{
		OFFSET 0.000000 3.402643 0.000000 
		CHANNELS 3 Xrotation Zrotation Yrotation
		JOINT chest
		{
			OFFSET 0.000000 8.438565 -0.680529 
			CHANNELS 3 Xrotation Zrotation Yrotation
			JOINT neck
			{
				OFFSET 0.000000 10.207942 -0.272212 
				CHANNELS 3 Xrotation Zrotation Yrotation
				JOINT head
				{
					OFFSET 0.000000 3.130431 0.000000 
					CHANNELS 3 Xrotation Zrotation Yrotation
					End Site
					{
						OFFSET 0.000000 3.130435 0.000000 
					}
				}
			}
			JOINT lCollar
			{
				OFFSET 3.470700 6.669187 -0.816635 
				CHANNELS 3 Yrotation Zrotation Xrotation
				JOINT lShldr
				{
					OFFSET 3.198488 0.000000 0.000000 
					CHANNELS 3 Zrotation Yrotation Xrotation
					JOINT lForeArm
					{
						OFFSET 10.139888 0.000000 0.000000 
						CHANNELS 3 Yrotation Zrotation Xrotation
						JOINT lHand
						{
							OFFSET 8.370511 0.000000 0.000000 
							CHANNELS 3 Zrotation Yrotation Xrotation
							End Site
							{
								OFFSET 4.083176 0.000000 0.000000 
							}
						}
					}
				}
			}
			JOINT rCollar
			{
				OFFSET -3.470700 6.669187 -0.816635 
				CHANNELS 3 Yrotation Zrotation Xrotation
				JOINT rShldr
				{
					OFFSET -3.198488 0.000000 0.000000 
					CHANNELS 3 Zrotation Yrotation Xrotation
					JOINT rForeArm
					{
						OFFSET -10.139888 0.000000 0.000000 
						CHANNELS 3 Yrotation Zrotation Xrotation
						JOINT rHand
						{
							OFFSET -8.370511 0.000000 0.000000 
							CHANNELS 3 Zrotation Yrotation Xrotation
							End Site
							{
								OFFSET -4.083176 0.000000 0.000000 
							}
						}
					}
				}
			}
		}
	}
	JOINT lThigh
	{
		OFFSET 5.308129 -1.633274 1.361059 
		CHANNELS 3 Xrotation Zrotation Yrotation
		JOINT lShin
		{
			OFFSET -2.041588 -20.007561 0.000000 
			CHANNELS 3 Xrotation Zrotation Yrotation
			JOINT lFoot
			{
				OFFSET 0.000000 -19.190928 -1.224953 
				CHANNELS 3 Xrotation Yrotation Zrotation
				End Site
				{
					OFFSET 0.000000 -2.449906 4.627600 
				}
			}
		}
	}
	JOINT rThigh
	{
		OFFSET -5.308129 -1.633274 1.361059 
		CHANNELS 3 Xrotation Zrotation Yrotation
		JOINT rShin
		{
			OFFSET 2.041588 -20.007561 0.000000 
			CHANNELS 3 Xrotation Zrotation Yrotation
			JOINT rFoot
			{
				OFFSET 0.000000 -19.190928 -1.224953 
				CHANNELS 3 Xrotation Yrotation Zrotation
				End Site
				{
					OFFSET 0.000000 -2.449906 4.627600 
				}
			}
		}
	}
}
MOTION
Frames: 11
Frame Time: 0.033333
-31.476250 44.112087 2.474809 -15.515932 -1.332964 43.129562 0.000000 0.000000 0.000000 35.924534 -0.499603 -11.272198 27.951195 1.569217 -11.537374 14.966315 -0.897806 2.148633 -10.268867 -14.181240 24.993982 -31.097980 6.590054 -13.675715 -55.095596 -1.056606 16.403349 -1.754269 -4.474735 -3.263466 -9.672499 -10.763508 24.991417 13.760201 -28.148888 7.469844 69.232475 -1.746916 3.990556 -7.314311 12.479139 -4.292005 -13.348622 28.404436 10.744025 59.490162 4.360403 15.245916 -27.924957 3.987633 -16.001812 -23.245327 -5.955582 0.996172 24.341291 -0.350983 8.089433 -0.070001 -0.019283 7.199890 
-31.838327 43.607624 3.108738 -13.579812 -1.373015 44.176003 0.000000 0.000000 0.000000 38.365005 0.165639 -12.775131 29.785168 1.253853 -11.447876 11.955968 -1.218944 3.076721 -9.321826 -16.759489 24.996445 -28.344778 8.660194 -15.582826 -56.900909 -0.878718 10.561245 1.069348 -4.299357 -3.460001 -8.948660 -15.224687 24.991274 15.880950 -29.806765 1.007570 70.307571 -2.372311 2.979426 -7.792752 13.273013 -4.391088 -16.120825 27.406776 8.486237 60.828789 4.908303 13.480392 -28.781071 4.238016 -16.456116 -22.858418 -6.796027 1.861091 21.994596 -0.939039 14.657865 4.856194 0.685855 15.724678 
-32.468678 43.196419 3.573287 -11.357283 -2.590405 45.322418 0.000000 0.000000 0.000000 40.655811 1.193622 -11.732829 30.422581 2.502168 -10.986857 10.683520 -3.382463 3.472850 -8.893455 -14.450808 24.999439 -31.125479 6.562047 -18.650164 -59.404053 -0.095583 7.424230 2.651587 -3.869953 -3.563324 -8.094582 -15.584924 24.994717 18.212965 -33.294704 -10.692535 69.998871 -2.922007 0.455497 -9.598680 11.731847 -4.559432 -20.418587 26.609253 5.656173 61.925896 5.708525 11.800113 -29.233910 4.349416 -16.629972 -27.081615 -7.771326 1.626976 26.127182 -0.227303 16.000456 2.346332 0.361059 16.912201 
-33.096195 43.201126 3.839095 -8.957473 -3.613797 46.212326 0.000000 0.000000 0.000000 43.741844 2.349018 -10.379725 31.806149 2.396736 -9.725367 7.354219 -3.296140 3.041626 -6.748482 -14.789847 24.991360 -31.197681 5.293354 -21.540253 -63.932755 0.200652 2.089946 5.277688 -3.704496 -3.717407 -5.651471 -16.608715 24.997555 24.354174 -33.647778 -28.777588 69.512184 -3.026522 -2.439279 -12.920835 6.158335 -4.442061 -23.836924 24.901201 3.143390 61.570507 6.236422 9.454076 -29.504738 3.970288 -15.109374 -32.139477 -8.094028 2.032750 30.629055 -0.663087 10.205047 2.349310 0.240203 12.422512 
-33.511055 42.834148 4.657342 -6.372278 -3.399457 48.051201 0.000000 0.000000 0.000000 46.511757 3.408760 -9.322699 33.954079 1.881479 -8.881748 2.501313 -2.420657 1.817672 -4.593565 -15.227035 24.995966 -31.826698 5.038350 -23.496552 -68.304611 0.461532 0.624827 4.113482 -3.572853 -3.647105 -2.937536 -16.590500 24.995689 30.077301 -31.810360 -49.761452 69.715126 -2.616105 -6.068886 -18.120474 -0.692567 -3.904191 -25.834629 22.563892 0.818816 61.166283 6.714713 6.123704 -30.370876 4.264556 -15.668797 -34.769939 -10.486926 0.910115 33.922863 -0.117219 3.554408 2.489614 0.321804 14.844124 
-34.000004 42.666363 5.409878 -2.416886 -2.619411 50.805565 0.000000 0.000000 0.000000 49.222218 4.602693 -7.465130 35.639305 2.272136 -9.646121 -0.625439 -2.685392 -0.615931 -3.189083 -13.619565 24.996456 -34.679932 2.326267 -23.686331 -72.613197 0.427583 0.624878 5.700149 -2.442120 -3.704079 -2.180258 -13.573495 24.993204 30.912233 -26.893019 -73.188889 70.405914 -1.961961 -9.270364 -25.908953 -4.830893 -3.195002 -27.822437 18.906443 -1.403484 60.267281 6.995670 4.005028 -30.766939 4.020093 -14.479466 -38.546852 -14.577475 0.317370 37.896217 0.039161 4.258881 0.353731 0.048950 14.780155 
-34.415916 42.293312 6.648024 0.521520 -1.225411 54.305218 0.000000 0.000000 0.000000 52.583950 6.771406 -4.849010 35.413857 2.668166 -9.482749 0.468001 -3.305922 -3.032438 -1.802457 -11.556281 24.992105 -38.336037 0.356341 -23.159344 -76.894379 0.336875 0.807241 3.713308 -2.472062 -3.601618 -2.252418 -11.229395 24.996315 26.838760 -17.097837 -96.183441 72.746056 0.354350 -4.264670 -35.246281 -5.604846 -2.836364 -28.626957 16.325041 -2.954858 59.162247 7.375719 1.211352 -30.880600 4.057032 -14.709936 -41.969902 -18.026327 -0.300068 45.204502 -0.156149 -0.169829 -2.914411 -0.398984 13.761039 
-34.907162 41.984318 7.793199 5.428916 -1.236427 58.322376 0.000000 0.000000 0.000000 53.696297 9.433334 -2.007427 34.125683 3.701559 -10.108866 0.957522 -3.767827 -6.078249 -1.586460 -8.750897 25.000000 -43.222744 -0.417656 -19.587620 -79.990700 0.054472 1.402592 4.191161 -1.794962 -3.615416 -3.693137 -6.575431 24.994354 12.255435 -9.001096 -108.724792 71.571083 0.825985 10.414864 -47.322227 -8.079108 -1.531169 -31.235424 13.474856 -3.979610 57.718555 6.771492 -2.919855 -31.247566 3.676887 -13.198870 -47.209625 -22.887476 -0.379508 50.606892 -0.266135 -1.428362 -5.616395 -0.658428 12.722848 
-35.195374 41.664883 8.852827 10.223701 0.266158 64.796242 0.000000 0.000000 0.000000 54.029686 13.767338 -0.580804 33.492844 6.035574 -12.108807 -1.342808 -4.834153 -8.115413 -2.887242 -6.199911 24.996885 -47.115196 2.036307 -14.927215 -81.694092 -0.480349 1.319731 2.926524 -0.974821 -3.540064 -5.800774 -0.990006 24.999527 -8.335951 -3.257062 -107.407066 59.618237 -3.471622 23.858976 -57.636673 -9.190691 -0.407304 -32.061378 8.201660 -5.608478 55.769577 6.654990 -5.755024 -30.648432 3.470232 -12.758720 -50.169758 -30.445667 -0.889409 56.405479 -0.478414 -2.131175 -9.157757 -1.013009 12.054145 
-35.627430 41.590412 10.343446 13.251643 0.230763 65.958076 0.000000 0.000000 0.000000 54.513363 15.415030 3.153065 32.579979 6.503336 -11.303261 -2.405955 -4.132937 -10.927462 -0.143574 -3.600052 24.993237 -49.044403 2.233496 -10.224434 -80.742569 -1.047615 3.705461 2.384907 0.039353 -3.526799 -0.183739 8.791518 24.988506 -42.504799 -2.029506 -82.137802 -0.087273 -16.224676 15.461793 -63.273819 -3.784429 -3.280519 -31.260614 8.689518 -4.630162 52.135632 5.668931 -7.676145 -29.435278 3.561372 -13.603479 -53.394653 -30.847614 0.405987 59.648720 -1.416705 -4.791937 -11.240262 -1.166462 11.427857 
-35.900478 41.621216 11.791829 15.440427 1.044560 66.858368 0.000000 0.000000 0.000000 54.816212 16.690437 6.387855 32.454548 8.216671 -11.702934 -6.327174 -3.702519 -12.947985 1.082378 1.075742 24.996292 -53.288574 2.097008 -6.458802 -79.101471 -1.407693 7.757048 -0.695647 -0.638263 -3.410312 8.082891 6.249345 24.995892 -30.381413 9.054829 -65.069199 -0.428558 -15.139112 0.305745 -34.507671 -4.180511 -3.275615 -28.529373 9.021978 -3.872099 47.588932 5.153014 -10.790373 -28.916046 3.548137 -13.800693 -54.517612 -30.642605 1.497290 62.074432 -2.480877 -6.149028 -13.465914 -1.354520 11.002324 
